<?xml version="1.0" encoding="UTF-8" standalone="no"?>
<!-- Generator: Adobe Illustrator 19.0.0, SVG Export Plug-In . SVG Version: 6.00 Build 0)  -->

<svg
   xmlns:dc="http://purl.org/dc/elements/1.1/"
   xmlns:cc="http://creativecommons.org/ns#"
   xmlns:rdf="http://www.w3.org/1999/02/22-rdf-syntax-ns#"
   xmlns:svg="http://www.w3.org/2000/svg"
   xmlns="http://www.w3.org/2000/svg"
   xmlns:sodipodi="http://sodipodi.sourceforge.net/DTD/sodipodi-0.dtd"
   xmlns:inkscape="http://www.inkscape.org/namespaces/inkscape"
   version="1.1"
   id="Capa_1"
   x="0px"
   y="0px"
   viewBox="0 0 2311 508"
   xml:space="preserve"
   sodipodi:docname="logo-education.svg"
   width="2311"
   height="508"
   inkscape:version="0.92.4 (5da689c313, 2019-01-14)"><metadata
   id="metadata73"><rdf:RDF><cc:Work
       rdf:about=""><dc:format>image/svg+xml</dc:format><dc:type
         rdf:resource="http://purl.org/dc/dcmitype/StillImage" /><dc:title></dc:title></cc:Work></rdf:RDF></metadata><defs
   id="defs71" /><sodipodi:namedview
   pagecolor="#ffffff"
   bordercolor="#666666"
   borderopacity="1"
   objecttolerance="10"
   gridtolerance="10"
   guidetolerance="10"
   inkscape:pageopacity="0"
   inkscape:pageshadow="2"
   inkscape:window-width="1920"
   inkscape:window-height="1001"
   id="namedview69"
   showgrid="false"
   inkscape:zoom="0.32593203"
   inkscape:cx="1330.9765"
   inkscape:cy="205.68802"
   inkscape:window-x="-9"
   inkscape:window-y="-9"
   inkscape:window-maximized="1"
   inkscape:current-layer="Capa_1" />
<g
   id="g6"
   transform="translate(0,-4)"
   style="fill:#ffffff">
	<g
   id="g4"
   style="fill:#ffffff">
		<path
   d="m 296,232 c -5.52,0 -10,4.48 -10,10 0,5.52 4.48,10 10,10 5.52,0 10,-4.48 10,-10 0,-5.52 -4.48,-10 -10,-10 z"
   id="path2"
   inkscape:connector-curvature="0"
   style="fill:#ffffff" />
	</g>
</g>
<g
   id="g12"
   transform="translate(0,-4)"
   style="fill:#ffffff">
	<g
   id="g10"
   style="fill:#ffffff">
		<path
   d="m 256,172 c -5.52,0 -10,4.48 -10,10 0,5.52 4.48,10 10,10 5.52,0 10,-4.48 10,-10 0,-5.52 -4.48,-10 -10,-10 z"
   id="path8"
   inkscape:connector-curvature="0"
   style="fill:#ffffff" />
	</g>
</g>
<g
   id="g18"
   transform="translate(0,-4)"
   style="fill:#ffffff">
	<g
   id="g16"
   style="fill:#ffffff">
		<path
   d="m 136,432 c -5.52,0 -10,4.48 -10,10 0,5.52 4.48,10 10,10 5.52,0 10,-4.48 10,-10 0,-5.52 -4.48,-10 -10,-10 z"
   id="path14"
   inkscape:connector-curvature="0"
   style="fill:#ffffff" />
	</g>
</g>
<g
   id="g24"
   transform="translate(0,-4)"
   style="fill:#ffffff">
	<g
   id="g22"
   style="fill:#ffffff">
		<path
   d="M 454.416,407.678 326,179.381 V 58.286 C 337.641,54.159 346,43.038 346,30 346,13.458 332.542,0 316,0 H 196 c -16.542,0 -30,13.458 -30,30 0,13.038 8.359,24.159 20,28.286 V 179.381 L 57.584,407.678 C 45.256,429.594 45.475,455.637 58.168,477.341 70.86,499.043 93.448,512 118.59,512 h 274.82 c 25.142,0 47.729,-12.957 60.422,-34.659 12.693,-21.704 12.912,-47.747 0.584,-69.663 z M 204.716,186.902 C 205.558,185.406 206,183.717 206,182 V 60 h 10 c 5.522,0 10,-4.478 10,-10 0,-5.522 -4.478,-10 -10,-10 h -20 c -5.514,0 -10,-4.486 -10,-10 0,-5.514 4.486,-10 10,-10 h 120 c 5.514,0 10,4.486 10,10 0,5.514 -4.486,10 -10,10 h -20 c -5.522,0 -10,4.478 -10,10 0,5.522 4.478,10 10,10 h 10 v 122 c 0,1.718 0.442,3.405 1.284,4.902 l 58.941,104.787 c -35.995,-2.915 -71.865,4.365 -104.821,21.43 -42.366,21.924 -89.529,25.784 -134,11.227 z M 436.567,467.244 C 427.502,482.745 411.368,492 393.41,492 H 118.59 c -17.958,0 -34.092,-9.255 -43.157,-24.756 -9.067,-15.503 -9.224,-34.106 -0.417,-49.762 l 42.408,-75.392 c 20.576,7.185 41.84,10.812 63.437,10.812 3.197,0 6.402,-0.079 9.613,-0.238 27.905,-1.382 54.862,-8.711 80.124,-21.784 33.792,-17.496 70.959,-23.536 107.783,-17.581 l 58.604,104.183 c 8.806,15.656 8.65,34.259 -0.418,49.762 z"
   id="path20"
   inkscape:connector-curvature="0"
   style="fill:#ffffff" />
	</g>
</g>
<g
   id="g30"
   transform="translate(0,-4)"
   style="fill:#ffffff">
	<g
   id="g28"
   style="fill:#ffffff">
		<path
   d="m 216,232 c -16.542,0 -30,13.458 -30,30 0,16.542 13.458,30 30,30 16.542,0 30,-13.458 30,-30 0,-16.542 -13.458,-30 -30,-30 z m 0,40 c -5.514,0 -10,-4.486 -10,-10 0,-5.514 4.486,-10 10,-10 5.514,0 10,4.486 10,10 0,5.514 -4.486,10 -10,10 z"
   id="path26"
   inkscape:connector-curvature="0"
   style="fill:#ffffff" />
	</g>
</g>
<g
   id="g36"
   transform="translate(0,-4)"
   style="fill:#ffffff">
	<g
   id="g34"
   style="fill:#ffffff">
		<path
   d="M 376,432 H 176 c -5.522,0 -10,4.478 -10,10 0,5.522 4.478,10 10,10 h 200 c 5.522,0 10,-4.478 10,-10 0,-5.522 -4.478,-10 -10,-10 z"
   id="path32"
   inkscape:connector-curvature="0"
   style="fill:#ffffff" />
	</g>
</g>
<g
   id="g38"
   transform="translate(0,-4)">
</g>
<g
   id="g40"
   transform="translate(0,-4)">
</g>
<g
   id="g42"
   transform="translate(0,-4)">
</g>
<g
   id="g44"
   transform="translate(0,-4)">
</g>
<g
   id="g46"
   transform="translate(0,-4)">
</g>
<g
   id="g48"
   transform="translate(0,-4)">
</g>
<g
   id="g50"
   transform="translate(0,-4)">
</g>
<g
   id="g52"
   transform="translate(0,-4)">
</g>
<g
   id="g54"
   transform="translate(0,-4)">
</g>
<g
   id="g56"
   transform="translate(0,-4)">
</g>
<g
   id="g58"
   transform="translate(0,-4)">
</g>
<g
   id="g60"
   transform="translate(0,-4)">
</g>
<g
   id="g62"
   transform="translate(0,-4)">
</g>
<g
   id="g64"
   transform="translate(0,-4)">
</g>
<g
   id="g66"
   transform="translate(0,-4)">
</g>
<text
   xml:space="preserve"
   style="font-style:normal;font-variant:normal;font-weight:normal;font-stretch:normal;font-size:16px;line-height:1.25;font-family:sans-serif;-inkscape-font-specification:'sans-serif, Normal';font-variant-ligatures:normal;font-variant-caps:normal;font-variant-numeric:normal;font-feature-settings:normal;text-align:start;letter-spacing:0px;word-spacing:0px;writing-mode:lr-tb;text-anchor:start;fill:#ffffff;fill-opacity:1;stroke:none"
   x="534.93384"
   y="376.65543"
   id="text885"><tspan
     sodipodi:role="line"
     id="tspan883"
     x="534.93384"
     y="376.65543"
     style="font-style:normal;font-variant:normal;font-weight:normal;font-stretch:normal;font-size:426.66665649px;font-family:'Ink Free';-inkscape-font-specification:'Ink Free, Normal';font-variant-ligatures:normal;font-variant-caps:normal;font-variant-numeric:normal;font-feature-settings:normal;text-align:start;writing-mode:lr-tb;text-anchor:start;fill:#ffffff">Education</tspan></text>


<text
   xml:space="preserve"
   style="font-style:normal;font-variant:normal;font-weight:normal;font-stretch:normal;font-size:16px;line-height:1.25;font-family:sans-serif;-inkscape-font-specification:'sans-serif, Normal';font-variant-ligatures:normal;font-variant-caps:normal;font-variant-numeric:normal;font-feature-settings:normal;text-align:start;letter-spacing:0px;word-spacing:0px;writing-mode:lr-tb;text-anchor:start;fill:#000000;fill-opacity:1;stroke:none"
   x="830.91522"
   y="314.91525"
   id="text889"><tspan
     sodipodi:role="line"
     id="tspan887"
     x="830.91522"
     y="329.51254" /></text>


<flowRoot
   xml:space="preserve"
   id="flowRoot891"
   style="font-style:normal;font-variant:normal;font-weight:normal;font-stretch:normal;font-size:16px;line-height:1.25;font-family:sans-serif;-inkscape-font-specification:'sans-serif, Normal';font-variant-ligatures:normal;font-variant-caps:normal;font-variant-numeric:normal;font-feature-settings:normal;text-align:start;letter-spacing:0px;word-spacing:0px;writing-mode:lr-tb;text-anchor:start;fill:#000000;fill-opacity:1;stroke:none"
   transform="translate(0,-4)"><flowRegion
     id="flowRegion893"><rect
       id="rect895"
       width="37.966103"
       height="238.64407"
       x="501.15256"
       y="271.18643" /></flowRegion><flowPara
     id="flowPara897" /></flowRoot><flowRoot
   xml:space="preserve"
   id="flowRoot899"
   style="font-style:normal;font-variant:normal;font-weight:normal;font-stretch:normal;font-size:16px;line-height:1.25;font-family:sans-serif;-inkscape-font-specification:'sans-serif, Normal';font-variant-ligatures:normal;font-variant-caps:normal;font-variant-numeric:normal;font-feature-settings:normal;text-align:start;letter-spacing:0px;word-spacing:0px;writing-mode:lr-tb;text-anchor:start;fill:#000000;fill-opacity:1;stroke:none"
   transform="translate(0,-4)"><flowRegion
     id="flowRegion901"><rect
       id="rect903"
       width="65.084747"
       height="186.57628"
       x="1310.3729"
       y="260.33899" /></flowRegion><flowPara
     id="flowPara905" /></flowRoot><flowRoot
   xml:space="preserve"
   id="flowRoot907"
   style="font-style:normal;font-variant:normal;font-weight:normal;font-stretch:normal;font-size:16px;line-height:1.25;font-family:sans-serif;-inkscape-font-specification:'sans-serif, Normal';font-variant-ligatures:normal;font-variant-caps:normal;font-variant-numeric:normal;font-feature-settings:normal;text-align:start;letter-spacing:0px;word-spacing:0px;writing-mode:lr-tb;text-anchor:start;fill:#000000;fill-opacity:1;stroke:none"
   transform="translate(0,-4)"><flowRegion
     id="flowRegion909"><rect
       id="rect911"
       width="13.016949"
       height="190.91525"
       x="551.05084"
       y="273.35593" /></flowRegion><flowPara
     id="flowPara913" /></flowRoot><flowRoot
   xml:space="preserve"
   id="flowRoot915"
   style="font-style:normal;font-variant:normal;font-weight:normal;font-stretch:normal;font-size:16px;line-height:1.25;font-family:sans-serif;-inkscape-font-specification:'sans-serif, Normal';font-variant-ligatures:normal;font-variant-caps:normal;font-variant-numeric:normal;font-feature-settings:normal;text-align:start;letter-spacing:0px;word-spacing:0px;writing-mode:lr-tb;text-anchor:start;fill:#000000;fill-opacity:1;stroke:none"
   transform="translate(0,-4)"><flowRegion
     id="flowRegion917"><rect
       id="rect919"
       width="21.694916"
       height="164.88136"
       x="598.77966"
       y="286.37289" /></flowRegion><flowPara
     id="flowPara921" /></flowRoot><flowRoot
   xml:space="preserve"
   id="flowRoot923"
   style="font-style:normal;font-variant:normal;font-weight:normal;font-stretch:normal;font-size:16px;line-height:1.25;font-family:sans-serif;-inkscape-font-specification:'sans-serif, Normal';font-variant-ligatures:normal;font-variant-caps:normal;font-variant-numeric:normal;font-feature-settings:normal;text-align:start;letter-spacing:0px;word-spacing:0px;writing-mode:lr-tb;text-anchor:start;fill:#000000;fill-opacity:1;stroke:none"
   transform="translate(0,-4)"><flowRegion
     id="flowRegion925"><rect
       id="rect927"
       width="43.389832"
       height="145.35593"
       x="512"
       y="-2.1694915" /></flowRegion><flowPara
     id="flowPara929" /></flowRoot><flowRoot
   xml:space="preserve"
   id="flowRoot931"
   style="font-style:normal;font-variant:normal;font-weight:normal;font-stretch:normal;font-size:16px;line-height:1.25;font-family:sans-serif;-inkscape-font-specification:'sans-serif, Normal';font-variant-ligatures:normal;font-variant-caps:normal;font-variant-numeric:normal;font-feature-settings:normal;text-align:start;letter-spacing:0px;word-spacing:0px;writing-mode:lr-tb;text-anchor:start;fill:#000000;fill-opacity:1;stroke:none"><flowRegion
     id="flowRegion933"><rect
       id="rect935"
       width="42.953739"
       height="159.54247"
       x="12.272497"
       y="-320.39359" /></flowRegion><flowPara
     id="flowPara937" /></flowRoot><flowRoot
   xml:space="preserve"
   id="flowRoot872"
   style="font-style:normal;font-variant:normal;font-weight:normal;font-stretch:normal;font-size:16px;line-height:1.25;font-family:sans-serif;-inkscape-font-specification:'sans-serif, Normal';font-variant-ligatures:normal;font-variant-caps:normal;font-variant-numeric:normal;font-feature-settings:normal;text-align:start;letter-spacing:0px;word-spacing:0px;writing-mode:lr-tb;text-anchor:start;fill:#000000;fill-opacity:1;stroke:none"><flowRegion
     id="flowRegion874"><rect
       id="rect876"
       width="24.544994"
       height="42.953739"
       x="736.34985"
       y="4.8276052" /></flowRegion><flowPara
     id="flowPara878"></flowPara></flowRoot></svg>